<?xml version="1.0" encoding="UTF-8"?>
<svg version="1.1" xmlns="http://www.w3.org/2000/svg" width="192" height="192">
<path d="M0 0 C63.36 0 126.72 0 192 0 C192 63.36 192 126.72 192 192 C128.64 192 65.28 192 0 192 C0 128.64 0 65.28 0 0 Z " fill="#F5D330" transform="translate(0,0)"/>
<path d="M0 0 C63.36 0 126.72 0 192 0 C192 63.36 192 126.72 192 192 C128.64 192 65.28 192 0 192 C0 128.64 0 65.28 0 0 Z M56 13 C56 13.66 56 14.32 56 15 C54.2675 15.3403125 54.2675 15.3403125 52.5 15.6875 C47.82167683 16.85499598 43.70351366 18.88757081 40 22 C39.505 23.485 39.505 23.485 39 25 C37.37109375 26.31640625 37.37109375 26.31640625 35.4375 27.5625 C33.53109879 28.74992017 33.53109879 28.74992017 32 30 C32 30.66 32 31.32 32 32 C31.4225 32.2475 30.845 32.495 30.25 32.75 C27.67060021 34.18299988 25.93878408 35.78424676 24 38 C24 38.66 24 39.32 24 40 C23.34 40 22.68 40 22 40 C21.34 41.98 20.68 43.96 20 46 C19.34 46 18.68 46 18 46 C18 47.32 18 48.64 18 50 C17.34 50 16.68 50 16 50 C11.75973917 58.64076756 11.75973917 58.64076756 10 68 C9.34 68 8.68 68 8 68 C7.51460131 69.83169318 7.03702814 71.66546059 6.5625 73.5 C6.29566406 74.5209375 6.02882813 75.541875 5.75390625 76.59375 C4.2074933 83.58065201 3.84049634 90.31249496 3.875 97.4375 C3.87113281 98.23220703 3.86726562 99.02691406 3.86328125 99.84570312 C3.87215936 105.301301 4.31729963 110.58716137 5 116 C5.66 116 6.32 116 7 116 C7.12117187 117.14339844 7.24234375 118.28679687 7.3671875 119.46484375 C7.53597321 120.95578417 7.70527047 122.44666673 7.875 123.9375 C7.95363281 124.69224609 8.03226563 125.44699219 8.11328125 126.22460938 C8.33883808 128.15919299 8.66258974 130.08176019 9 132 C9.66 132.33 10.32 132.66 11 133 C11.72159424 134.64363134 12.39351421 136.31050386 13 138 C13.66 138 14.32 138 15 138 C15.144375 138.94875 15.28875 139.8975 15.4375 140.875 C15.82935399 143.8934494 15.82935399 143.8934494 17 146 C17.66 146 18.32 146 19 146 C19.99 148.97 20.98 151.94 22 155 C22.66 155 23.32 155 24 155 C24 155.66 24 156.32 24 157 C24.99 157.33 25.98 157.66 27 158 C27.495 158.99 27.495 158.99 28 160 C28.66 160 29.32 160 30 160 C30 160.66 30 161.32 30 162 C30.66 162 31.32 162 32 162 C34 166 34 166 34.6875 168.0625 C36.34647801 170.51146754 38.14005537 171.01182416 40.84375 172.03125 C43.43194911 173.19406409 45.5987193 174.7063494 47.9375 176.3125 C52.53845537 179.30980288 57.13355685 181.45492853 62.25 183.375 C62.9112085 183.62548096 63.57241699 183.87596191 64.25366211 184.1340332 C68.52571752 185.67218715 72.51784619 186.50069271 77 187 C77.08975098 186.41436279 77.17950195 185.82872559 77.27197266 185.2253418 C79.37742113 171.66053774 81.90867067 158.27434143 85.06884766 144.9128418 C85.31940918 143.83558838 85.5699707 142.75833496 85.828125 141.6484375 C86.0540332 140.70145996 86.27994141 139.75448242 86.51269531 138.77880859 C87.17272878 135.48523275 87.17272878 135.48523275 87 130 C71.49 129.34 55.98 128.68 40 128 C40 127.67 40 127.34 40 127 C51.88 126.01 51.88 126.01 64 125 C64 124.01 64 123.02 64 122 C60.32589215 120.82428549 56.83070817 120.92633254 53 121 C53 120.34 53 119.68 53 119 C56.3 119 59.6 119 63 119 C63 117.68 63 116.36 63 115 C62.33613281 114.86722656 61.67226563 114.73445313 60.98828125 114.59765625 C53 113 53 113 50.4375 112.4375 C48.1210657 112.02172974 46.03535923 111.89770578 43.6875 111.9375 C41.8621875 111.9684375 41.8621875 111.9684375 40 112 C40 111.34 40 110.68 40 110 C57.31969132 108.93868906 74.65669869 108.48275009 92 108 C92.20753906 106.71867187 92.41507812 105.43734375 92.62890625 104.1171875 C95.2637348 88.90831424 99.04742827 74.77969369 112 65 C123.00505128 58.19714453 134.0647988 55.5471332 147 57 C150.27732161 58.56878668 151.64823518 59.31322106 153.3125 62.5625 C154.21579491 67.07897455 154.16323321 71.41133301 154 76 C150.39818086 77.80090957 146.01849593 77.70598499 142.02929688 78.07421875 C135.98902269 78.73356413 132.67549957 80.36439327 128.375 84.5625 C123.20087964 91.15218159 122.49906895 99.91164109 122 108 C123.14339844 108.06058594 124.28679687 108.12117188 125.46484375 108.18359375 C126.95574305 108.26798428 128.44662775 108.35263302 129.9375 108.4375 C130.69224609 108.47681641 131.44699219 108.51613281 132.22460938 108.55664062 C137.88671875 108.88671875 137.88671875 108.88671875 139 110 C139.59950831 116.12190213 139.22024614 120.63292311 136 126 C136 126.66 136 127.32 136 128 C132.15158652 129.18031238 128.241721 129.33235351 124.25 129.5625 C123.55261719 129.60568359 122.85523437 129.64886719 122.13671875 129.69335938 C120.42468078 129.79889596 118.71236439 129.8998991 117 130 C116.05600208 134.81528033 115.11414733 139.63097376 114.17407227 144.44702148 C113.855616 146.07701266 113.53662655 147.70689978 113.21704102 149.33666992 C111.51706122 158.00790547 109.84373485 166.68384988 108.26953125 175.37890625 C108.14068039 176.07410873 108.01182953 176.76931122 107.8790741 177.48558044 C107.24671565 181.03353869 106.8586689 184.3954047 107 188 C123.2585732 187.5700858 139.12486764 180.58786452 152 171 C152.99 170.67 153.98 170.34 155 170 C155 169.34 155 168.68 155 168 C155.9590625 167.5978125 155.9590625 167.5978125 156.9375 167.1875 C159.33131686 166.11332248 159.33131686 166.11332248 160 163 C160.66 163 161.32 163 162 163 C163.54972283 161.58601419 163.54972283 161.58601419 165.0625 159.75 C165.58972656 159.14671875 166.11695313 158.5434375 166.66015625 157.921875 C168.05446823 155.92187065 168.57323058 154.38147874 169 152 C169.66 152 170.32 152 171 152 C174.87701549 147.9241632 176.88052538 144.25261102 179 139 C179.66 137.88625 180.32 136.7725 181 135.625 C184.89381988 128.93062505 186.42048944 122.70897311 186 115 C186.66 115 187.32 115 188 115 C191.1443287 88.49780095 187.48881481 62.72179197 171 41 C170.5978125 40.0409375 170.5978125 40.0409375 170.1875 39.0625 C168.4123506 35.97934578 165.76157117 34.19798521 163 32 C162 31 161 30 160 29 C157.33128598 26.62256578 157.33128598 26.62256578 154 26 C154 25.34 154 24.68 154 24 C153.34 24 152.68 24 152 24 C152 23.34 152 22.68 152 22 C150.9275 21.34 149.855 20.68 148.75 20 C148.14671875 19.62875 147.5434375 19.2575 146.921875 18.875 C144.74520615 17.72375977 144.74520615 17.72375977 141 18 C140.67 17.01 140.34 16.02 140 15 C137.98491642 14.26676204 137.98491642 14.26676204 136 14 C136 13.34 136 12.68 136 12 C134.68 12 133.36 12 132 12 C132 11.34 132 10.68 132 10 C130.824375 9.87625 129.64875 9.7525 128.4375 9.625 C125.56327774 9.27460895 123.12607152 8.7481901 120.3125 7.9375 C117.32393084 7.09167854 115.07332893 6.81373764 112 7 C112 6.34 112 5.68 112 5 C91.8410301 4.29002328 74.81416526 5.7424996 56 13 Z " fill="#FDFDFC" transform="translate(0,0)"/>
<path d="M0 0 C3.92012602 3.92012602 3.17053937 9.53748815 3.328125 14.79296875 C3.21984375 15.52128906 3.1115625 16.24960938 3 17 C-1.10108527 19.73405685 -5.2326552 19.70888183 -10.01953125 20.12304688 C-15.66952196 20.70698446 -19.07401289 22.13065957 -23.125 26.0625 C-27.45101425 32.83992233 -28.58743041 41.18932108 -30 49 C-28.86820312 48.97679687 -27.73640625 48.95359375 -26.5703125 48.9296875 C-25.08854825 48.91093099 -23.60677688 48.89273066 -22.125 48.875 C-21.37863281 48.85824219 -20.63226563 48.84148437 -19.86328125 48.82421875 C-17.90805539 48.8066041 -15.95257979 48.89679811 -14 49 C-11.55049379 51.44950621 -11.67728746 52.24723021 -11.625 55.625 C-11.72790243 60.69661988 -12.80479937 64.97641402 -16 69 C-19.5786347 71.61645462 -23.50530728 71.22931192 -27.75 71.125 C-28.79607422 71.11146484 -28.79607422 71.11146484 -29.86328125 71.09765625 C-31.57566958 71.07419888 -33.28788004 71.03833104 -35 71 C-35.05824951 72.05247925 -35.05824951 72.05247925 -35.11767578 73.1262207 C-35.67447608 81.33399384 -37.11840171 89.16007477 -38.875 97.1875 C-40.80401093 106.2144662 -42.67897671 115.22658473 -44.14990234 124.34057617 C-44.90208133 128.90208133 -44.90208133 128.90208133 -46 130 C-47.39432686 130.09899441 -48.79357106 130.13079563 -50.19140625 130.1328125 C-51.48594727 130.13474609 -51.48594727 130.13474609 -52.80664062 130.13671875 C-53.71607422 130.13285156 -54.62550781 130.12898437 -55.5625 130.125 C-56.88604492 130.13080078 -56.88604492 130.13080078 -58.23632812 130.13671875 C-72.88493477 130.11506523 -72.88493477 130.11506523 -75 128 C-75.40270816 121.24081988 -74.21223866 115.09449622 -72.8125 108.5 C-72.47955933 106.88557007 -72.47955933 106.88557007 -72.13989258 105.23852539 C-71.433982 101.82410167 -70.71716635 98.41207536 -70 95 C-69.5175056 92.67593135 -69.03572709 90.35171395 -68.5546875 88.02734375 C-67.37807251 82.34981455 -66.19251208 76.67421021 -65 71 C-65.57105469 71.00523682 -66.14210937 71.01047363 -66.73046875 71.01586914 C-78.08109337 71.10496884 -89.40763141 71.0353978 -100.75 70.5625 C-101.71164063 70.52326416 -102.67328125 70.48402832 -103.6640625 70.44360352 C-110.13004096 70.1519852 -116.55924626 69.63734996 -123 69 C-123 68.67 -123 68.34 -123 68 C-118.66703867 67.66171232 -114.33357981 67.33026252 -110 67 C-108.77925781 66.90460938 -107.55851562 66.80921875 -106.30078125 66.7109375 C-100.18152207 66.24785843 -94.13685286 65.87726294 -88 66 C-88 65.01 -88 64.02 -88 63 C-91.63 62.67 -95.26 62.34 -99 62 C-99 61.34 -99 60.68 -99 60 C-95.7 60 -92.4 60 -89 60 C-89 58.68 -89 57.36 -89 56 C-96.59 55.01 -104.18 54.02 -112 53 C-112 52.34 -112 51.68 -112 51 C-94.70422506 48.47441096 -77.43051894 48.79719257 -60 49 C-60.01268921 47.36140015 -60.01268921 47.36140015 -60.02563477 45.68969727 C-59.93336494 32.40899373 -54.3272007 19.16688966 -45.3125 9.5 C-34.8483097 -0.16903906 -13.15828925 -9.58875334 0 0 Z " fill="#1083D6" transform="translate(152,59)"/>
<path d="M0 0 C1.5005896 0.08302368 1.5005896 0.08302368 3.03149414 0.16772461 C22.01707894 1.21603216 41.00008183 2.24398231 60 3 C59.43617776 9.99365488 58.37639601 16.76100843 56.9375 23.625 C56.75123047 24.53378906 56.56496094 25.44257813 56.37304688 26.37890625 C55.91982704 28.5869003 55.46210307 30.79385124 55 33 C52.64769648 30.64769648 52.74437997 30.19296706 52.734375 27.0078125 C52.73179688 26.22019531 52.72921875 25.43257812 52.7265625 24.62109375 C52.73429687 23.79738281 52.74203125 22.97367188 52.75 22.125 C52.73839844 20.90103516 52.73839844 20.90103516 52.7265625 19.65234375 C52.72914062 18.86214844 52.73171875 18.07195312 52.734375 17.2578125 C52.73663086 16.5373877 52.73888672 15.81696289 52.74121094 15.07470703 C53.03690523 12.7041315 53.82829321 11.06590407 55 9 C49.35833009 8.95059501 43.71678587 8.91427807 38.07495117 8.89013672 C36.15533251 8.88007361 34.23572919 8.86642184 32.31616211 8.84912109 C29.55839248 8.82488636 26.80082536 8.81352008 24.04296875 8.8046875 C23.18350143 8.79436493 22.32403412 8.78404236 21.43852234 8.77340698 C20.63791885 8.77325592 19.83731537 8.77310486 19.01245117 8.77294922 C18.3085173 8.768508 17.60458344 8.76406677 16.87931824 8.75949097 C14.6666762 8.90112227 14.6666762 8.90112227 12 11 C12 10.34 12 9.68 12 9 C11.01 9 10.02 9 9 9 C9 9.66 9 10.32 9 11 C8.34 11 7.68 11 7 11 C7 10.34 7 9.68 7 9 C6.34 8.67 5.68 8.34 5 8 C5 7.34 5 6.68 5 6 C4.34 6 3.68 6 3 6 C2.01 4.02 1.02 2.04 0 0 Z " fill="#DDBC34" transform="translate(27,127)"/>
<path d="M0 0 C0.66 0.33 1.32 0.66 2 1 C1.67 1.33 1.34 1.66 1 2 C0.63239269 4.32817964 0.29758419 6.6618385 0 9 C-2.31 9.33 -4.62 9.66 -7 10 C-8.12862175 15.36095333 -8.09688221 20.55306686 -8 26 C-7.09636719 25.91621094 -6.19273437 25.83242187 -5.26171875 25.74609375 C-4.08222656 25.64425781 -2.90273437 25.54242188 -1.6875 25.4375 C0.07013672 25.28087891 0.07013672 25.28087891 1.86328125 25.12109375 C5 25 5 25 8 26 C7.98839844 26.58007812 7.97679687 27.16015625 7.96484375 27.7578125 C7.92397815 31.29560616 7.92145107 34.57234474 8.5625 38.0625 C9.13766781 41.92434101 8.59792406 45.14671159 8 49 C5.36 49 2.72 49 0 49 C1.875 43.25 1.875 43.25 3 41 C3.09534254 39.3146804 3.12985758 37.62550734 3.125 35.9375 C3.12757813 35.03902344 3.13015625 34.14054687 3.1328125 33.21484375 C3.24738223 31.02621107 3.24738223 31.02621107 2 30 C-0.69235776 29.76321284 -3.36498156 29.57801975 -6.0625 29.4375 C-7.20041992 29.37272461 -7.20041992 29.37272461 -8.36132812 29.30664062 C-10.24065438 29.20026367 -12.12030244 29.09960066 -14 29 C-13.35841817 18.60194963 -11.92230508 10.34733689 -4.71875 2.49609375 C-3 1 -3 1 0 0 Z " fill="#D8BC35" transform="translate(136,79)"/>
<path d="M0 0 C0 2.64 0 5.28 0 8 C-4.95 8 -9.9 8 -15 8 C-15.165 9.423125 -15.33 10.84625 -15.5 12.3125 C-15.5928125 13.11300781 -15.685625 13.91351563 -15.78125 14.73828125 C-16.04813463 17.11896555 -16.04813463 17.11896555 -16 20 C-16 24 -16 28 -16 32 C-18.64 32.33 -21.28 32.66 -24 33 C-23.31889294 26.06704711 -22.21959819 19.28290765 -20.9375 12.4375 C-20.75123047 11.42880859 -20.56496094 10.42011719 -20.37304688 9.38085938 C-19.91820197 6.92003184 -19.46046882 4.45978026 -19 2 C-17.41058594 1.90912109 -17.41058594 1.90912109 -15.7890625 1.81640625 C-14.40102779 1.73199873 -13.01300768 1.64735083 -11.625 1.5625 C-10.92632812 1.52318359 -10.22765625 1.48386719 -9.5078125 1.44335938 C-6.19444366 1.23627382 -3.14965628 0 0 0 Z " fill="#D3AB2F" transform="translate(136,128)"/>
<path d="M0 0 C2.54296875 2.04296875 2.54296875 2.04296875 5 5 C5.05078125 8.55078125 5.05078125 8.55078125 4.3125 12.3125 C4.08175781 13.56675781 3.85101563 14.82101563 3.61328125 16.11328125 C3.41089844 17.06589844 3.20851562 18.01851562 3 19 C-10.24605697 16.99664601 -24.66688311 12.06512605 -34 2 C-31.29120665 0.64560332 -28.99066732 0.93498549 -26 1 C-25.67 1.99 -25.34 2.98 -25 4 C-24.484375 4.515625 -23.96875 5.03125 -23.4375 5.5625 C-22.963125 6.036875 -22.48875 6.51125 -22 7 C-22 7.66 -22 8.32 -22 9 C-21.45601562 8.65453125 -20.91203125 8.3090625 -20.3515625 7.953125 C-17.32508291 6.72644557 -15.55502246 7.11570981 -12.375 7.75 C-11.41335937 7.93046875 -10.45171875 8.1109375 -9.4609375 8.296875 C-7 9 -7 9 -5 11 C-4.34 10.67 -3.68 10.34 -3 10 C-2.53348793 7.87423218 -2.53348793 7.87423218 -2.375 5.4375 C-2.30023438 4.61121094 -2.22546875 3.78492188 -2.1484375 2.93359375 C-2.09945312 2.29550781 -2.05046875 1.65742188 -2 1 C-1.34 2.32 -0.68 3.64 0 5 C0 3.35 0 1.7 0 0 Z " fill="#F3C23D" transform="translate(74,168)"/>
<path d="M0 0 C1.85431641 0.47566406 1.85431641 0.47566406 3.74609375 0.9609375 C9.49794707 2.23912713 15.18906912 2.44712954 21.0625 2.625 C22.11888672 2.66367188 23.17527344 2.70234375 24.26367188 2.7421875 C26.84228408 2.83553093 29.42090608 2.92131253 32 3 C32 3.66 32 4.32 32 5 C28.37 5 24.74 5 21 5 C21 5.66 21 6.32 21 7 C23.64 7 26.28 7 29 7 C29 7.66 29 8.32 29 9 C27.53626953 8.96519531 27.53626953 8.96519531 26.04296875 8.9296875 C24.77066406 8.91164062 23.49835937 8.89359375 22.1875 8.875 C20.92292969 8.85179687 19.65835938 8.82859375 18.35546875 8.8046875 C14.8661976 8.72418082 14.8661976 8.72418082 12 11 C12 10.34 12 9.68 12 9 C11.01 9 10.02 9 9 9 C9 9.66 9 10.32 9 11 C8.34 11 7.68 11 7 11 C7 10.34 7 9.68 7 9 C6.34 8.67 5.68 8.34 5 8 C5 7.34 5 6.68 5 6 C4.34 6 3.68 6 3 6 C2.01 4.02 1.02 2.04 0 0 Z " fill="#E6BE2C" transform="translate(27,127)"/>
<path d="M0 0 C5.94 0.99 5.94 0.99 12 2 C12 2.66 12 3.32 12 4 C13.32 4 14.64 4 16 4 C16 4.66 16 5.32 16 6 C17.65 6.66 19.3 7.32 21 8 C21 8.66 21 9.32 21 10 C22.051875 10.1546875 22.051875 10.1546875 23.125 10.3125 C26.39137647 11.09359003 29.0471852 12.42058743 32 14 C32 14.66 32 15.32 32 16 C30.04196493 16.05389087 28.08351091 16.09274217 26.125 16.125 C25.03445312 16.14820312 23.94390625 16.17140625 22.8203125 16.1953125 C20 16 20 16 18 14 C18 14.66 18 15.32 18 16 C17.34 15.67 16.68 15.34 16 15 C16 12.69 16 10.38 16 8 C14.741875 7.855625 13.48375 7.71125 12.1875 7.5625 C9.57332877 7.26251314 7.52560108 6.84186703 5 6 C5 5.34 5 4.68 5 4 C4.360625 3.896875 3.72125 3.79375 3.0625 3.6875 C2.381875 3.460625 1.70125 3.23375 1 3 C0.67 2.01 0.34 1.02 0 0 Z " fill="#F8E535" transform="translate(120,8)"/>
<path d="M0 0 C0.33 0 0.66 0 1 0 C1 7.26 1 14.52 1 22 C8.40812947 22.22545758 8.40812947 22.22545758 15 19.5 C18.10263885 17.17302086 21.17477426 17.31876881 25 17 C25 16.34 25 15.68 25 15 C24.34 14.67 23.68 14.34 23 14 C25.31 14.33 27.62 14.66 30 15 C22.41051067 22.3277828 8.44728938 25.79817644 -1.8828125 26.078125 C-2.93082031 26.03945312 -2.93082031 26.03945312 -4 26 C-3.38641858 17.19828026 -1.70450615 8.64045258 0 0 Z " fill="#D4AA36" transform="translate(111,162)"/>
<path d="M0 0 C0.33 0 0.66 0 1 0 C1.0494186 5.21442276 1.08572831 10.42870934 1.10986328 15.64331055 C1.11992411 17.41742324 1.13357422 19.19151935 1.15087891 20.96557617 C1.17512378 23.51485284 1.18648218 26.06391037 1.1953125 28.61328125 C1.20563507 29.40712723 1.21595764 30.20097321 1.22659302 31.01887512 C1.2273811 34.88223043 1.19440369 36.70839446 -1 40 C-1 38.68 -1 37.36 -1 36 C-1.66 36 -2.32 36 -3 36 C-3.66 39.63 -4.32 43.26 -5 47 C-5.66 47 -6.32 47 -7 47 C-6.34 43.04 -5.68 39.08 -5 35 C-4.34 35 -3.68 35 -3 35 C-3 24.44 -3 13.88 -3 3 C-2.34 3 -1.68 3 -1 3 C-0.67 2.01 -0.34 1.02 0 0 Z " fill="#F4F1EA" transform="translate(191,80)"/>
<path d="M0 0 C2.9283534 6.00005277 1.42158236 11.13368742 0.125 17.375 C-0.17470703 18.90833984 -0.17470703 18.90833984 -0.48046875 20.47265625 C-0.97350252 22.9847807 -1.48033603 25.49327331 -2 28 C-4.31 28 -6.62 28 -9 28 C-8.505 26.515 -8.505 26.515 -8 25 C-5.9375 24.3125 -5.9375 24.3125 -4 24 C-4.33 23.67 -4.66 23.34 -5 23 C-5.08700342 21.36527118 -5.10701063 19.72685945 -5.09765625 18.08984375 C-5.09443359 17.10048828 -5.09121094 16.11113281 -5.08789062 15.09179688 C-5.07951172 14.05087891 -5.07113281 13.00996094 -5.0625 11.9375 C-5.05798828 10.89271484 -5.05347656 9.84792969 -5.04882812 8.77148438 C-5.03699913 6.1809334 -5.02051689 3.59049441 -5 1 C-3 0 -3 0 0 0 Z " fill="#1379C7" transform="translate(109,160)"/>
<path d="M0 0 C0 1.65 0 3.3 0 5 C-1.32 4.67 -2.64 4.34 -4 4 C-4 4.99 -4 5.98 -4 7 C-4.73605469 6.94199219 -5.47210938 6.88398438 -6.23046875 6.82421875 C-12.63145485 6.42222041 -12.63145485 6.42222041 -18.125 9.375 C-19.97617238 11.82237596 -19.97617238 11.82237596 -21 14 C-20.34 14.33 -19.68 14.66 -19 15 C-23.29 15 -27.58 15 -32 15 C-32 14.34 -32 13.68 -32 13 C-27.16230728 9.3956321 -22.13722814 6.32301201 -16 6 C-16 5.34 -16 4.68 -16 4 C-14.08594633 3.32586789 -12.16863974 2.6609668 -10.25 2 C-9.18265625 1.62875 -8.1153125 1.2575 -7.015625 0.875 C-4 0 -4 0 0 0 Z " fill="#F6E93C" transform="translate(72,9)"/>
<path d="M0 0 C0 0.33 0 0.66 0 1 C-15.345 1.495 -15.345 1.495 -31 2 C-30.01 2.99 -29.02 3.98 -28 5 C-27.8125 8.6875 -27.8125 8.6875 -28 12 C-31.63 12.33 -35.26 12.66 -39 13 C-39 12.34 -39 11.68 -39 11 C-35.7 11 -32.4 11 -29 11 C-29 9.68 -29 8.36 -29 7 C-36.59 6.01 -44.18 5.02 -52 4 C-52 3.34 -52 2.68 -52 2 C-34.70422506 -0.52558904 -17.43051894 -0.20280743 0 0 Z " fill="#3896CF" transform="translate(92,108)"/>
<path d="M0 0 C-0.95117134 1.1725131 -1.91117009 2.33787015 -2.875 3.5 C-3.67550781 4.47453125 -3.67550781 4.47453125 -4.4921875 5.46875 C-4.98976562 5.9740625 -5.48734375 6.479375 -6 7 C-6.66 7 -7.32 7 -8 7 C-8.268125 7.639375 -8.53625 8.27875 -8.8125 8.9375 C-10 11 -10 11 -13 12 C-13 12.66 -13 13.32 -13 14 C-13.886875 14.433125 -14.77375 14.86625 -15.6875 15.3125 C-18.54429455 16.76784817 -21.27396863 18.31627474 -24 20 C-24 17.36 -24 14.72 -24 12 C-21.36 12 -18.72 12 -16 12 C-16 9.36 -16 6.72 -16 4 C-13 4 -10 4 -7 4 C-6.67 3.34 -6.34 2.68 -6 2 C-6.66 2 -7.32 2 -8 2 C-8 1.34 -8 0.68 -8 0 C-4.90645403 -0.99435406 -3.09720845 -0.87840996 0 0 Z " fill="#F0BB34" transform="translate(168,156)"/>
<path d="M0 0 C-0.99 0.33 -1.98 0.66 -3 1 C-3 1.99 -3 2.98 -3 4 C-1.35 4 0.3 4 2 4 C2 4.66 2 5.32 2 6 C3.0725 6.103125 4.145 6.20625 5.25 6.3125 C8.85820872 6.97400493 10.36395023 7.57483421 13 10 C11.94232422 9.78537109 11.94232422 9.78537109 10.86328125 9.56640625 C7.97588399 8.99522944 5.08390614 8.46094689 2.1875 7.9375 C0.72376953 7.67259766 0.72376953 7.67259766 -0.76953125 7.40234375 C-1.50558594 7.26957031 -2.24164063 7.13679687 -3 7 C-3 6.34 -3 5.68 -3 5 C-18.84 5.495 -18.84 5.495 -35 6 C-31.58788584 3.72525723 -29.3431471 3.43370356 -25.3125 2.875 C-24.13300781 2.70742188 -22.95351562 2.53984375 -21.73828125 2.3671875 C-20.83464844 2.24601563 -19.93101563 2.12484375 -19 2 C-19 1.67 -19 1.34 -19 1 C-12.62641289 0.03794912 -6.44070471 -0.10655578 0 0 Z " fill="#F6F3CF" transform="translate(115,0)"/>
<path d="M0 0 C0.97001953 0.01353516 1.94003906 0.02707031 2.93945312 0.04101562 C5.31439129 0.07611323 7.68814378 0.12527725 10.0625 0.1875 C6.34332242 2.66695172 3.70345885 2.58744368 -0.66015625 2.84375 C-3.13219659 2.98643062 -3.13219659 2.98643062 -4.9375 5.1875 C-7.1796875 5.34765625 -7.1796875 5.34765625 -9.8125 5.25 C-13.08302516 5.13772824 -15.79395696 5.24443709 -18.9375 6.1875 C-18.9375 8.8275 -18.9375 11.4675 -18.9375 14.1875 C-21.5775 13.8575 -24.2175 13.5275 -26.9375 13.1875 C-26.9375 12.5275 -26.9375 11.8675 -26.9375 11.1875 C-25.6175 11.1875 -24.2975 11.1875 -22.9375 11.1875 C-23.040625 10.424375 -23.14375 9.66125 -23.25 8.875 C-23.146875 7.988125 -23.04375 7.10125 -22.9375 6.1875 C-20.875 4.5625 -20.875 4.5625 -17.9375 3.1875 C-16.9475 2.66800781 -15.9575 2.14851563 -14.9375 1.61328125 C-10.07346312 -0.46299576 -5.20161348 -0.13866229 0 0 Z " fill="#0F88E1" transform="translate(138.9375,57.8125)"/>
<path d="M0 0 C0.70898438 0.144375 1.41796875 0.28875 2.1484375 0.4375 C11.81045986 2.12192036 21.23598767 2.15176926 31.02294922 2.01367188 C32.10979004 2.00013672 33.19663086 1.98660156 34.31640625 1.97265625 C35.29037354 1.95468994 36.26434082 1.93672363 37.26782227 1.91821289 C39.9590874 1.99877529 42.38193389 2.39175038 45 3 C42 5 42 5 38.8125 4.625 C37.884375 4.41875 36.95625 4.2125 36 4 C36 4.66 36 5.32 36 6 C9.77256741 6.8862837 9.77256741 6.8862837 0 2 C0 1.34 0 0.68 0 0 Z " fill="#E9EAE6" transform="translate(72,186)"/>
<path d="M0 0 C0.99 0.33 1.98 0.66 3 1 C3 2.32 3 3.64 3 5 C3.66 5 4.32 5 5 5 C5 5.66 5 6.32 5 7 C5.66 7 6.32 7 7 7 C7.66 9.31 8.32 11.62 9 14 C9.66 14 10.32 14 11 14 C11 14.66 11 15.32 11 16 C11.66 16 12.32 16 13 16 C13.33 15.34 13.66 14.68 14 14 C14 14.66 14 15.32 14 16 C14.66 16 15.32 16 16 16 C16 16.99 16 17.98 16 19 C16.928125 19.144375 17.85625 19.28875 18.8125 19.4375 C22 20 22 20 25 21 C24.67 21.99 24.34 22.98 24 24 C23.34 24 22.68 24 22 24 C22.33 24.99 22.66 25.98 23 27 C23.66 27.33 24.32 27.66 25 28 C25 28.66 25 29.32 25 30 C23.68 30 22.36 30 21 30 C19.09080647 27.38369776 18.02455574 25.07366722 17 22 C16.34 22 15.68 22 15 22 C15 21.34 15 20.68 15 20 C14.34 20 13.68 20 13 20 C12.67 19.34 12.34 18.68 12 18 C11.01 17.67 10.02 17.34 9 17 C9 16.34 9 15.68 9 15 C8.34 15 7.68 15 7 15 C6.01 12.03 5.02 9.06 4 6 C3.34 6 2.68 6 2 6 C1.34 4.02 0.68 2.04 0 0 Z " fill="#F9C733" transform="translate(15,140)"/>
<path d="M0 0 C0.91120605 0.05236816 1.82241211 0.10473633 2.76123047 0.15869141 C3.74736328 0.21025391 4.73349609 0.26181641 5.74951172 0.31494141 C7.29832031 0.41162109 7.29832031 0.41162109 8.87841797 0.51025391 C10.43882812 0.59533203 10.43882812 0.59533203 12.03076172 0.68212891 C14.60565215 0.82386599 17.17960537 0.97529945 19.75341797 1.13525391 C19.09341797 2.45525391 18.43341797 3.77525391 17.75341797 5.13525391 C13.75341797 5.13525391 9.75341797 5.13525391 5.75341797 5.13525391 C5.15529297 5.60962891 4.55716797 6.08400391 3.94091797 6.57275391 C1.50891157 8.30990134 -0.31623092 8.7282607 -3.24658203 9.13525391 C-3.87158203 5.76025391 -3.87158203 5.76025391 -4.24658203 2.13525391 C-2.24658203 0.13525391 -2.24658203 0.13525391 0 0 Z " fill="#0F88DF" transform="translate(132.24658203125,71.86474609375)"/>
<path d="M0 0 C0.99 0 1.98 0 3 0 C3.02707139 2.24993359 3.04642829 4.49996095 3.0625 6.75 C3.07410156 8.00296875 3.08570313 9.2559375 3.09765625 10.546875 C3.02021027 13.28536501 2.82780815 15.41880293 2 18 C1.34 18 0.68 18 0 18 C-0.28875 17.195625 -0.5775 16.39125 -0.875 15.5625 C-1.73262568 12.8673532 -1.73262568 12.8673532 -4 12 C-4.40729228 9.67843403 -4.74438677 7.3431213 -5 5 C-4.34 5 -3.68 5 -3 5 C-2.5359375 4.0409375 -2.5359375 4.0409375 -2.0625 3.0625 C-1 1 -1 1 0 0 Z " fill="#F6D243" transform="translate(13,120)"/>
<path d="M0 0 C0.66 0 1.32 0 2 0 C0.125 4.75 0.125 4.75 -1 7 C-0.01 7.33 0.98 7.66 2 8 C1.01 8.495 1.01 8.495 0 9 C-0.70381157 10.98723268 -1.3711811 12.98777953 -2 15 C-3 16 -3 16 -4.84765625 16.09765625 C-6.8984375 16.06510417 -8.94921875 16.03255208 -11 16 C-11 16.66 -11 17.32 -11 18 C-12.98 18.33 -14.96 18.66 -17 19 C-16.01 18.67 -15.02 18.34 -14 18 C-14 17.34 -14 16.68 -14 16 C-11.625 13.375 -11.625 13.375 -9 11 C-8.34 11 -7.68 11 -7 11 C-6.67 10.01 -6.34 9.02 -6 8 C-4 6 -4 6 -2 4 C-0.76487921 1.86690808 -0.76487921 1.86690808 0 0 Z " fill="#F6F5F3" transform="translate(169,152)"/>
<path d="M0 0 C-0.78246094 0.30292969 -1.56492187 0.60585938 -2.37109375 0.91796875 C-3.38300781 1.33691406 -4.39492187 1.75585938 -5.4375 2.1875 C-6.44683594 2.59355469 -7.45617187 2.99960937 -8.49609375 3.41796875 C-11.24640397 4.77928675 -11.24640397 4.77928675 -11.84765625 7.67578125 C-11.89792969 8.44277344 -11.94820312 9.20976563 -12 10 C-13.32 10 -14.64 10 -16 10 C-16 10.66 -16 11.32 -16 12 C-14.68 12.33 -13.36 12.66 -12 13 C-12.59167969 12.93039063 -13.18335937 12.86078125 -13.79296875 12.7890625 C-18.56108952 12.35252894 -18.56108952 12.35252894 -22.7109375 14.3359375 C-24.24391028 16.16187297 -24.24391028 16.16187297 -26 19 C-26.33 18.34 -26.66 17.68 -27 17 C-9.70395109 -3.62221216 -9.70395109 -3.62221216 0 0 Z " fill="#3E9AD7" transform="translate(128,59)"/>
<path d="M0 0 C1.87558594 0.00966797 1.87558594 0.00966797 3.7890625 0.01953125 C5.09101562 0.03628906 6.39296875 0.05304687 7.734375 0.0703125 C9.05179688 0.07933594 10.36921875 0.08835937 11.7265625 0.09765625 C14.97934962 0.12122717 18.23177089 0.15413228 21.484375 0.1953125 C21.484375 0.8553125 21.484375 1.5153125 21.484375 2.1953125 C23.134375 2.1953125 24.784375 2.1953125 26.484375 2.1953125 C26.484375 2.5253125 26.484375 2.8553125 26.484375 3.1953125 C22.1793659 3.22015056 17.87439549 3.23823762 13.56933594 3.25024414 C12.10676343 3.25525295 10.64419589 3.26206188 9.18164062 3.27075195 C7.07160209 3.28296948 4.96163013 3.28857545 2.8515625 3.29296875 C1.58425293 3.29820557 0.31694336 3.30344238 -0.98876953 3.30883789 C-4.262821 3.20344997 -7.30451652 2.81981476 -10.515625 2.1953125 C-6.97418975 -0.00098533 -4.11895253 -0.03744502 0 0 Z " fill="#F6E842" transform="translate(90.515625,4.8046875)"/>
<path d="M0 0 C2.43081895 1.66007147 3.61312338 2.46946766 5 5 C5.1484257 9.07640594 4.6476204 12.97962387 4 17 C1.36 17 -1.28 17 -4 17 C-2.125 11.25 -2.125 11.25 -1 9 C-0.77532169 7.46331135 -0.59203195 5.92031946 -0.4375 4.375 C-0.35371094 3.55773437 -0.26992187 2.74046875 -0.18359375 1.8984375 C-0.12300781 1.27195312 -0.06242188 0.64546875 0 0 Z " fill="#E0B624" transform="translate(140,111)"/>
<path d="M0 0 C0.66 0 1.32 0 2 0 C2 1.32 2 2.64 2 4 C2.99 4 3.98 4 5 4 C4.67 6.64 4.34 9.28 4 12 C4.99 12.66 5.98 13.32 7 14 C7 14.99 7 15.98 7 17 C6.34 17 5.68 17 5 17 C5 17.99 5 18.98 5 20 C-1.11090483 20.09945415 -6.97403427 20.0712828 -13 19 C-13 18.67 -13 18.34 -13 18 C-12.15695313 17.93941406 -11.31390625 17.87882812 -10.4453125 17.81640625 C-9.34960938 17.73261719 -8.25390625 17.64882812 -7.125 17.5625 C-6.03445312 17.48128906 -4.94390625 17.40007812 -3.8203125 17.31640625 C-1.05271029 17.16998297 -1.05271029 17.16998297 1 16 C1.09688221 10.55306686 1.12862175 5.36095333 0 0 Z " fill="#DCC332" transform="translate(153,60)"/>
<path d="M0 0 C1.98 0.495 1.98 0.495 4 1 C4 11.56 4 22.12 4 33 C1.59195877 28.18391754 1.59488786 24.08106454 1.43359375 18.84375 C1.26935221 15.01620811 0.85577153 12.33447394 -1 9 C-1.29888997 6.26946281 -1.13585901 3.7624666 -1 1 C-0.67 0.67 -0.34 0.34 0 0 Z " fill="#F6EFEA" transform="translate(1,79)"/>
<path d="M0 0 C0.66 1.32 1.32 2.64 2 4 C3.35544922 3.98259766 3.35544922 3.98259766 4.73828125 3.96484375 C5.91777344 3.95582031 7.09726563 3.94679688 8.3125 3.9375 C9.48425781 3.92589844 10.65601563 3.91429688 11.86328125 3.90234375 C15 4 15 4 18 5 C17.67 8.3 17.34 11.6 17 15 C14.74754119 12.31158141 13.11786042 10.35358125 12 7 C8.04 7 4.08 7 0 7 C0 4.69 0 2.38 0 0 Z " fill="#E9BF2C" transform="translate(126,100)"/>
<path d="M0 0 C0.66 0.33 1.32 0.66 2 1 C2.33 1.99 2.66 2.98 3 4 C1.02 4 -0.96 4 -3 4 C-3 4.66 -3 5.32 -3 6 C-6.9886955 7.81304341 -10.67957832 8.39362503 -15 9 C-16.010625 9.37125 -17.02125 9.7425 -18.0625 10.125 C-21.44534435 11.13265577 -23.60169941 10.80911919 -27 10 C-27 9.67 -27 9.34 -27 9 C-25.44152344 8.63648438 -25.44152344 8.63648438 -23.8515625 8.265625 C-11.01575827 5.96684024 -11.01575827 5.96684024 0 0 Z " fill="#E9E6E0" transform="translate(139,178)"/>
<path d="M0 0 C0 2.31 0 4.62 0 7 C-1.11375 7.103125 -2.2275 7.20625 -3.375 7.3125 C-4.57125 7.539375 -5.7675 7.76625 -7 8 C-8.93798263 10.77260299 -8.93798263 10.77260299 -10 13 C-9.34 13.66 -8.68 14.32 -8 15 C-10.64 15 -13.28 15 -16 15 C-14.55922954 11.63820226 -12.75249979 9.40843732 -10 7 C-9.34 7 -8.68 7 -8 7 C-8 6.34 -8 5.68 -8 5 C-6.50390625 3.7109375 -6.50390625 3.7109375 -4.5625 2.375 C-3.92441406 1.92898437 -3.28632812 1.48296875 -2.62890625 1.0234375 C-1 0 -1 0 0 0 Z " fill="#F5E845" transform="translate(40,25)"/>
<path d="M0 0 C3.96 1.32 7.92 2.64 12 4 C12 4.66 12 5.32 12 6 C13.12019531 6.12117187 14.24039063 6.24234375 15.39453125 6.3671875 C16.86723636 6.53603267 18.33989004 6.70532697 19.8125 6.875 C20.55048828 6.95363281 21.28847656 7.03226563 22.04882812 7.11328125 C25.71506181 7.54460286 27.87951745 7.9196783 31 10 C28.10259378 10.13539281 25.21154379 10.23426829 22.3125 10.3125 C21.49587891 10.35439453 20.67925781 10.39628906 19.83789062 10.43945312 C15.42453412 10.52879233 13.65573814 10.56102041 10.1875 7.59375 C9.465625 6.7378125 8.74375 5.881875 8 5 C5.83717399 3.81855197 5.83717399 3.81855197 3.6875 3.1875 C2.470625 2.795625 1.25375 2.40375 0 2 C0 1.34 0 0.68 0 0 Z " fill="#F8F7F3" transform="translate(60,182)"/>
<path d="M0 0 C1.33123403 3.9937021 0.26957871 5.62245432 -1.25 9.5 C-1.68828125 10.6446875 -2.1265625 11.789375 -2.578125 12.96875 C-3.83218769 15.64224629 -4.75622307 17.15218371 -7 19 C-8.80230168 15.17010894 -9.19622241 12.21878192 -9 8 C-7.35 8 -5.7 8 -4 8 C-3.67 6.68 -3.34 5.36 -3 4 C-2.34 4 -1.68 4 -1 4 C-0.67 2.68 -0.34 1.36 0 0 Z " fill="#F6C639" transform="translate(185,120)"/>
<path d="M0 0 C1.19625 -0.02578125 2.3925 -0.0515625 3.625 -0.078125 C7.27375991 0.27661555 9.09941834 1.05739273 12 3.25 C13.3125 5.4375 13.3125 5.4375 14 7.25 C11.36 6.59 8.72 5.93 6 5.25 C6 5.91 6 6.57 6 7.25 C5.34 7.25 4.68 7.25 4 7.25 C4 6.59 4 5.93 4 5.25 C1.36 5.25 -1.28 5.25 -4 5.25 C-4 4.92 -4 4.59 -4 4.25 C-0.7 3.92 2.6 3.59 6 3.25 C0.06 2.92 -5.88 2.59 -12 2.25 C-12 1.92 -12 1.59 -12 1.25 C-7.96774589 0.30303123 -4.13841198 0.05351395 0 0 Z " fill="#2F91D5" transform="translate(140,55.75)"/>
<path d="M0 0 C5.94 0.99 5.94 0.99 12 2 C12 2.66 12 3.32 12 4 C13.32 4 14.64 4 16 4 C16 4.66 16 5.32 16 6 C17.32 6.66 18.64 7.32 20 8 C16.28233332 9.23922223 14.56110463 8.57018942 10.8125 7.5625 C9.72582031 7.27503906 8.63914063 6.98757812 7.51953125 6.69140625 C6.27236328 6.34916016 6.27236328 6.34916016 5 6 C5 5.34 5 4.68 5 4 C4.360625 3.896875 3.72125 3.79375 3.0625 3.6875 C2.381875 3.460625 1.70125 3.23375 1 3 C0.67 2.01 0.34 1.02 0 0 Z " fill="#F7E947" transform="translate(120,8)"/>
<path d="M0 0 C0.16351958 4.90558734 0.2147556 7.63562867 -2 12 C-2.43098753 13.90485849 -2.80392764 15.82356582 -3.125 17.75 C-3.29257813 18.73484375 -3.46015625 19.7196875 -3.6328125 20.734375 C-3.75398438 21.48203125 -3.87515625 22.2296875 -4 23 C-4.33 23 -4.66 23 -5 23 C-5 15.74 -5 8.48 -5 1 C-3 0 -3 0 0 0 Z " fill="#0678CC" transform="translate(109,160)"/>
<path d="M0 0 C0.33 0.99 0.66 1.98 1 3 C1.99 3 2.98 3 4 3 C4.25 5.8125 4.25 5.8125 4 9 C2.375 10.875 2.375 10.875 0 12 C-3.25 12.1875 -3.25 12.1875 -6 12 C-5.34 10.02 -4.68 8.04 -4 6 C-3.34 6 -2.68 6 -2 6 C-2 4.68 -2 3.36 -2 2 C-1.34 2 -0.68 2 0 2 C0 1.34 0 0.68 0 0 Z " fill="#F8E539" transform="translate(20,44)"/>
<path d="M0 0 C1.79206547 0.14084796 3.58364917 0.28783701 5.375 0.4375 C6.87160156 0.55931641 6.87160156 0.55931641 8.3984375 0.68359375 C11 1 11 1 13 2 C13 3.32 13 4.64 13 6 C11.02 6 9.04 6 7 6 C7 5.34 7 4.68 7 4 C2.05 4 -2.9 4 -8 4 C-6 2 -6 2 -2.875 1.875 C-1.92625 1.91625 -0.9775 1.9575 0 2 C0 1.34 0 0.68 0 0 Z " fill="#E9CD43" transform="translate(50,113)"/>
<path d="M0 0 C0.33 0 0.66 0 1 0 C1.06705962 3.88945799 1.10148452 7.413645 0.4375 11.25 C0.00415005 13.97391397 0.2593443 15.40770504 1 18 C0.67 18.66 0.34 19.32 0 20 C-0.66 20 -1.32 20 -2 20 C-2.66 22.64 -3.32 25.28 -4 28 C-4.33 28 -4.66 28 -5 28 C-4.30654365 21.7515933 -3.20358931 15.65596779 -1.9375 9.5 C-1.75123047 8.5821875 -1.56496094 7.664375 -1.37304688 6.71875 C-0.91801873 4.47861146 -0.46028733 2.23906274 0 0 Z " fill="#539CBF" transform="translate(85,140)"/>
<path d="M0 0 C0.495 1.485 0.495 1.485 1 3 C-4.61 3.66 -10.22 4.32 -16 5 C-16 5.33 -16 5.66 -16 6 C-22.27 5.67 -28.54 5.34 -35 5 C-35 4.67 -35 4.34 -35 4 C-30.66703867 3.66171232 -26.33357981 3.33026252 -22 3 C-20.16888672 2.85691406 -20.16888672 2.85691406 -18.30078125 2.7109375 C-12.18152207 2.24785843 -6.13685286 1.87726294 0 2 C0 1.34 0 0.68 0 0 Z " fill="#6DA4AF" transform="translate(64,123)"/>
<path d="M0 0 C-0.99 0.33 -1.98 0.66 -3 1 C-3 1.66 -3 2.32 -3 3 C-0.69 3 1.62 3 4 3 C4 3.33 4 3.66 4 4 C-1.94 4.495 -1.94 4.495 -8 5 C-8 4.34 -8 3.68 -8 3 C-10.64 3 -13.28 3 -16 3 C-16 2.34 -16 1.68 -16 1 C-10.63904667 -0.12862175 -5.44693314 -0.09688221 0 0 Z " fill="#FAD039" transform="translate(56,118)"/>
<path d="M0 0 C0.99 0 1.98 0 3 0 C2.01 3.96 1.02 7.92 0 12 C-0.66 12 -1.32 12 -2 12 C-2.12375 13.2375 -2.2475 14.475 -2.375 15.75 C-2.75746305 18.8762197 -3.30549523 21.28879237 -5 24 C-6.22413793 16.65517241 -6.22413793 16.65517241 -5.1875 13.625 C-4 12 -4 12 -2 10 C-1.61936779 7.6739143 -1.28730055 5.33944736 -1 3 C-0.67 2.01 -0.34 1.02 0 0 Z " fill="#F5EDC5" transform="translate(10,56)"/>
<path d="M0 0 C0.94875 0.04125 1.8975 0.0825 2.875 0.125 C3.205 1.115 3.535 2.105 3.875 3.125 C4.37 3.62 4.865 4.115 5.375 4.625 C6.875 6.125 6.875 6.125 7.875 9.125 C3.09890502 7.48321735 -0.91882904 4.85953298 -5.125 2.125 C-3.125 0.125 -3.125 0.125 0 0 Z " fill="#EDC248" transform="translate(45.125,168.875)"/>
<path d="M0 0 C0.77859375 0.13277344 1.5571875 0.26554688 2.359375 0.40234375 C12.88844188 2.06418956 23.35929379 2.59321244 34 3 C34 3.33 34 3.66 34 4 C30.20840036 4.05886171 26.41692081 4.09388224 22.625 4.125 C21.03365234 4.15013672 21.03365234 4.15013672 19.41015625 4.17578125 C12.68730739 4.21702572 6.52888452 3.62170836 0 2 C0 1.34 0 0.68 0 0 Z " fill="#DADDDB" transform="translate(72,186)"/>
<path d="M0 0 C0.66 1.32 1.32 2.64 2 4 C-0.1783456 5.0891728 -1.7203964 5.28032356 -4.1328125 5.53515625 C-5.34130859 5.66567383 -5.34130859 5.66567383 -6.57421875 5.79882812 C-7.41597656 5.88583984 -8.25773438 5.97285156 -9.125 6.0625 C-9.97449219 6.15337891 -10.82398438 6.24425781 -11.69921875 6.33789062 C-13.7991145 6.5620368 -15.89951293 6.78146448 -18 7 C-17.1875 5.0625 -17.1875 5.0625 -16 3 C-13.13231765 2.04410588 -11.34630505 1.89394667 -8.375 1.9375 C-7.57835937 1.94652344 -6.78171875 1.95554687 -5.9609375 1.96484375 C-5.31382812 1.97644531 -4.66671875 1.98804687 -4 2 C-2.53774984 2.09245003 -2.53774984 2.09245003 0 0 Z " fill="#2D8FCE" transform="translate(152,73)"/>
<path d="M0 0 C-0.42152344 0.48210937 -0.84304687 0.96421875 -1.27734375 1.4609375 C-1.82519531 2.09257813 -2.37304688 2.72421875 -2.9375 3.375 C-3.48277344 4.00148438 -4.02804688 4.62796875 -4.58984375 5.2734375 C-6.06958624 6.95632334 -6.06958624 6.95632334 -7 9 C-7.66 9 -8.32 9 -9 9 C-9.6875 6.1875 -9.6875 6.1875 -10 3 C-8.55789618 0.79889416 -7.4464038 0.16740143 -5 -0.75 C-3 -1 -3 -1 0 0 Z " fill="#1D8BD6" transform="translate(133,81)"/>
<path d="M0 0 C2.91226879 1.4561344 3.31842064 3.49960664 4.625 6.4375 C5.07101563 7.42621094 5.51703125 8.41492188 5.9765625 9.43359375 C7 12 7 12 7 14 C6.34 14 5.68 14 5 14 C4.67 13.01 4.34 12.02 4 11 C3.34 10.67 2.68 10.34 2 10 C1.67 10.66 1.34 11.32 1 12 C-0.79760213 8.18009548 -1.28743526 5.21571713 -1 1 C-0.67 0.67 -0.34 0.34 0 0 Z " fill="#F7DD4F" transform="translate(177,52)"/>
<path d="M0 0 C0 0.66 0 1.32 0 2 C-1.11375 2.12375 -2.2275 2.2475 -3.375 2.375 C-7.03103677 2.6465813 -7.03103677 2.6465813 -9 5 C-11.6015625 5.1953125 -11.6015625 5.1953125 -14.625 5.125 C-16.12933594 5.09792969 -16.12933594 5.09792969 -17.6640625 5.0703125 C-18.43492188 5.04710937 -19.20578125 5.02390625 -20 5 C-20 4.34 -20 3.68 -20 3 C-18.02 3 -16.04 3 -14 3 C-14.66 2.34 -15.32 1.68 -16 1 C-14.1746875 1.0309375 -14.1746875 1.0309375 -12.3125 1.0625 C-8.11046948 1.06992408 -4.16750563 0 0 0 Z " fill="#F9F9F2" transform="translate(128,187)"/>
<path d="M0 0 C2.31 0.33 4.62 0.66 7 1 C2.51463747 5.33069486 -3.02181831 7.49157335 -9 9 C-9.99 8.67 -10.98 8.34 -12 8 C-7.25036599 4.31903365 -3.99291003 3.41330414 2 3 C2 2.34 2 1.68 2 1 C1.34 0.67 0.68 0.34 0 0 Z " fill="#DAB13C" transform="translate(134,176)"/>
<path d="M0 0 C8.57142857 -0.14285714 8.57142857 -0.14285714 12 1 C12 1.66 12 2.32 12 3 C12.66 3.33 13.32 3.66 14 4 C9.38 4 4.76 4 0 4 C0 2.68 0 1.36 0 0 Z " fill="#D9A92A" transform="translate(120,132)"/>
<path d="M0 0 C5.61 0 11.22 0 17 0 C17 0.66 17 1.32 17 2 C8.585 2.495 8.585 2.495 0 3 C0 2.01 0 1.02 0 0 Z " fill="#E9BC2F" transform="translate(64,132)"/>
<path d="M0 0 C2.14699969 3.44175522 2.09856795 5.7720292 1.625 9.75 C1.51414062 10.73484375 1.40328125 11.7196875 1.2890625 12.734375 C1.19367188 13.48203125 1.09828125 14.2296875 1 15 C0.01 15 -0.98 15 -2 15 C-2.33 15.66 -2.66 16.32 -3 17 C-2.25339288 11.27601207 -1.17122859 5.65146223 0 0 Z " fill="#C7AD31" transform="translate(115,142)"/>
<path d="M0 0 C0.33 0 0.66 0 1 0 C1.36940986 3.16507833 1.71768546 6.33215545 2.0625 9.5 C2.16626953 10.386875 2.27003906 11.27375 2.37695312 12.1875 C2.96410354 17.69456592 2.91315289 22.53385403 2 28 C1.67 28 1.34 28 1 28 C0.17961409 21.598406 -0.12754513 15.38697499 -0.0625 8.9375 C-0.05798828 8.07189453 -0.05347656 7.20628906 -0.04882812 6.31445312 C-0.03719913 4.20960461 -0.01927073 2.10479242 0 0 Z " fill="#EED84E" transform="translate(4,88)"/>
<path d="M0 0 C1.32 0.33 2.64 0.66 4 1 C4 1.66 4 2.32 4 3 C4.66 3 5.32 3 6 3 C6 3.66 6 4.32 6 5 C6.66 5 7.32 5 8 5 C9.38938077 6.96147874 10.7260411 8.96166576 12 11 C10.68 10.67 9.36 10.34 8 10 C8 9.34 8 8.68 8 8 C6.35 7.67 4.7 7.34 3 7 C3 5.68 3 4.36 3 3 C2.01 3 1.02 3 0 3 C0 2.01 0 1.02 0 0 Z " fill="#EFEAEB" transform="translate(24,157)"/>
<path d="M0 0 C0.66 0.99 1.32 1.98 2 3 C0.68 3 -0.64 3 -2 3 C-2 4.32 -2 5.64 -2 7 C-4.70879335 8.35439668 -7.00933268 8.06501451 -10 8 C-10 7.34 -10 6.68 -10 6 C-7.8125 4.4921875 -7.8125 4.4921875 -5 2.875 C-4.071875 2.33617187 -3.14375 1.79734375 -2.1875 1.2421875 C-1.465625 0.83226563 -0.74375 0.42234375 0 0 Z " fill="#F5E962" transform="translate(50,16)"/>
<path d="M0 0 C0.66 0 1.32 0 2 0 C2 0.99 2 1.98 2 3 C4.97 3 7.94 3 11 3 C10.67 3.99 10.34 4.98 10 6 C6.7 6 3.4 6 0 6 C0 4.02 0 2.04 0 0 Z " fill="#0B78CD" transform="translate(78,181)"/>
<path d="M0 0 C0.99 0.33 1.98 0.66 3 1 C3 2.32 3 3.64 3 5 C3.66 5 4.32 5 5 5 C5 5.66 5 6.32 5 7 C5.66 7 6.32 7 7 7 C7.66 9.31 8.32 11.62 9 14 C9.66 14 10.32 14 11 14 C11 14.99 11 15.98 11 17 C10.34 17 9.68 17 9 17 C9 16.34 9 15.68 9 15 C8.34 15 7.68 15 7 15 C6.01 12.03 5.02 9.06 4 6 C3.34 6 2.68 6 2 6 C1.34 4.02 0.68 2.04 0 0 Z " fill="#E4CA7A" transform="translate(15,140)"/>
<path d="M0 0 C0 0.66 0 1.32 0 2 C-6.37358711 2.96205088 -12.55929529 3.10655578 -19 3 C-19.33 2.34 -19.66 1.68 -20 1 C-13.31184516 0.37577221 -6.71884955 -0.12920865 0 0 Z " fill="#FBD327" transform="translate(48,121)"/>
<path d="M0 0 C3.96 1.32 7.92 2.64 12 4 C12 4.66 12 5.32 12 6 C12.99 6.33 13.98 6.66 15 7 C15 7.99 15 8.98 15 10 C14.34 10 13.68 10 13 10 C11.948125 8.8553125 11.948125 8.8553125 10.875 7.6875 C7.34895891 4.39141811 4.55602238 3.46719365 0 2 C0 1.34 0 0.68 0 0 Z " fill="#ECEBE9" transform="translate(60,182)"/>
<path d="M0 0 C1.58203125 1.453125 1.58203125 1.453125 3 4 C2.94759077 6.99264313 2.31909332 9.83160327 1.6875 12.75 C1.53087891 13.54277344 1.37425781 14.33554688 1.21289062 15.15234375 C0.82474328 17.10484249 0.41449744 19.05292487 0 21 C-0.33 21 -0.66 21 -1 21 C-1.12109311 13.92278069 -0.85373239 7.02804699 0 0 Z " fill="#1A80BB" transform="translate(108,162)"/>
<path d="M0 0 C2.64 0 5.28 0 8 0 C6.55746343 3.36591866 4.66735273 5.51047079 2 8 C1.34 5.36 0.68 2.72 0 0 Z " fill="#F3C243" transform="translate(168,144)"/>
<path d="M0 0 C0.66 0 1.32 0 2 0 C2 1.32 2 2.64 2 4 C2.99 4 3.98 4 5 4 C4.67 6.64 4.34 9.28 4 12 C4.66 12.33 5.32 12.66 6 13 C5.67 13.99 5.34 14.98 5 16 C4.01 15.67 3.02 15.34 2 15 C1.34 10.05 0.68 5.1 0 0 Z " fill="#C6C042" transform="translate(153,60)"/>
<path d="M0 0 C0.66 0 1.32 0 2 0 C3.25227484 1.47704212 4.50166522 2.95827399 5.68359375 4.4921875 C7.11764091 6.26762944 7.11764091 6.26762944 10 8 C10.6875 10.625 10.6875 10.625 11 13 C9.5 11.625 9.5 11.625 8 10 C8 9.34 8 8.68 8 8 C6.02 7.34 4.04 6.68 2 6 C1.34 6.66 0.68 7.32 0 8 C0 5.36 0 2.72 0 0 Z " fill="#F6E66E" transform="translate(160,30)"/>
<path d="M0 0 C0.33 0.66 0.66 1.32 1 2 C3.01669827 3.13350534 3.01669827 3.13350534 5 4 C5 5.32 5 6.64 5 8 C3.35 8 1.7 8 0 8 C-0.98120464 4.94736336 -0.98120464 3.05263664 0 0 Z " fill="#F8E535" transform="translate(153,24)"/>
<path d="M0 0 C2 2 2 2 2.1953125 4.6015625 C2.17210938 5.59929687 2.14890625 6.59703125 2.125 7.625 C2.10695313 8.62789062 2.08890625 9.63078125 2.0703125 10.6640625 C2.03550781 11.82035156 2.03550781 11.82035156 2 13 C1.01 13.33 0.02 13.66 -1 14 C-1.93402724 8.58264203 -2.20808081 5.19548425 0 0 Z " fill="#047AC5" transform="translate(86,154)"/>
<path d="M0 0 C-0.95117134 1.1725131 -1.91117009 2.33787015 -2.875 3.5 C-3.40867188 4.1496875 -3.94234375 4.799375 -4.4921875 5.46875 C-4.98976562 5.9740625 -5.48734375 6.479375 -6 7 C-6.66 7 -7.32 7 -8 7 C-7.34 5.35 -6.68 3.7 -6 2 C-6.66 2 -7.32 2 -8 2 C-8 1.34 -8 0.68 -8 0 C-4.90645403 -0.99435406 -3.09720845 -0.87840996 0 0 Z " fill="#EAC047" transform="translate(168,156)"/>
<path d="M0 0 C0.66 0.33 1.32 0.66 2 1 C1.67 1.33 1.34 1.66 1 2 C0.63239269 4.32817964 0.29758419 6.6618385 0 9 C-1.65 7.68 -3.3 6.36 -5 5 C-4.1875 3.0625 -4.1875 3.0625 -3 1 C-2.01 0.67 -1.02 0.34 0 0 Z " fill="#DAC12D" transform="translate(136,79)"/>
<path d="M0 0 C3.96 0 7.92 0 12 0 C9.2403139 1.83979073 7.70258118 2.48323221 4.5625 3.1875 C3.80066406 3.36667969 3.03882812 3.54585937 2.25390625 3.73046875 C-0.12958496 4.0154963 -1.73104204 3.72875415 -4 3 C-3.01 2.67 -2.02 2.34 -1 2 C-0.67 1.34 -0.34 0.68 0 0 Z " fill="#F4EDA7" transform="translate(68,6)"/>
<path d="M0 0 C1.98 0.495 1.98 0.495 4 1 C4 1.66 4 2.32 4 3 C6.97 3.495 6.97 3.495 10 4 C10 4.33 10 4.66 10 5 C6.37 5 2.74 5 -1 5 C-0.67 3.35 -0.34 1.7 0 0 Z " fill="#F7E72E" transform="translate(121,11)"/>
<path d="M0 0 C-4.03385747 2.77327701 -6.48134633 4.41258739 -11.4375 3.75 C-12.613125 3.5025 -13.78875 3.255 -15 3 C-15 2.67 -15 2.34 -15 2 C-12.87707704 1.47076428 -10.75157949 0.95184623 -8.625 0.4375 C-7.44164063 0.14746094 -6.25828125 -0.14257812 -5.0390625 -0.44140625 C-2 -1 -2 -1 0 0 Z " fill="#E2D5C5" transform="translate(127,185)"/>
<path d="M0 0 C1.32 0.33 2.64 0.66 4 1 C3.01 1.66 2.02 2.32 1 3 C0.67 2.01 0.34 1.02 0 0 Z M-3 3 C-1.68 3 -0.36 3 1 3 C0.67 4.32 0.34 5.64 0 7 C0.66 7.33 1.32 7.66 2 8 C0.02 8 -1.96 8 -4 8 C-3.67 6.35 -3.34 4.7 -3 3 Z " fill="#F7E831" transform="translate(51,16)"/>
<path d="M0 0 C2.64 0 5.28 0 8 0 C8 0.66 8 1.32 8 2 C9.65 2 11.3 2 13 2 C13 2.33 13 2.66 13 3 C8.71 3 4.42 3 0 3 C0 2.01 0 1.02 0 0 Z " fill="#F5E948" transform="translate(104,5)"/>
<path d="M0 0 C2.64 0.33 5.28 0.66 8 1 C8 1.66 8 2.32 8 3 C5.36 3.66 2.72 4.32 0 5 C0 3.35 0 1.7 0 0 Z " fill="#F1B633" transform="translate(128,176)"/>
<path d="M0 0 C0.66 0.33 1.32 0.66 2 1 C-3.75 6 -3.75 6 -6 6 C-6 6.66 -6 7.32 -6 8 C-8.5 9.625 -8.5 9.625 -11 11 C-11 10.01 -11 9.02 -11 8 C-10.34 8 -9.68 8 -9 8 C-8.67 7.01 -8.34 6.02 -8 5 C-5.625 3.4375 -5.625 3.4375 -3 2 C-2.01 1.34 -1.02 0.68 0 0 Z " fill="#F4F0C0" transform="translate(38,24)"/>
<path d="M0 0 C3.7910119 1.44950455 7.3874638 3.15172566 11 5 C6.74938644 6.41687119 4.28148375 5.19320039 0 4 C0 2.68 0 1.36 0 0 Z " fill="#EAE5E3" transform="translate(48,176)"/>
<path d="M0 0 C-1.375 2 -1.375 2 -3 4 C-3.66 4 -4.32 4 -5 4 C-5 4.66 -5 5.32 -5 6 C-5.99 6 -6.98 6 -8 6 C-8 4.68 -8 3.36 -8 2 C-4.77208445 -0.1519437 -3.71599191 -0.20086443 0 0 Z " fill="#E5BF58" transform="translate(160,164)"/>
<path d="M0 0 C5.28 0.33 10.56 0.66 16 1 C16 1.33 16 1.66 16 2 C15.07767578 2.09087891 15.07767578 2.09087891 14.13671875 2.18359375 C13.32847656 2.26738281 12.52023438 2.35117188 11.6875 2.4375 C10.88699219 2.51871094 10.08648437 2.59992188 9.26171875 2.68359375 C6.83912821 2.95265693 6.83912821 2.95265693 4 4 C3.01 4 2.02 4 1 4 C0.67 2.68 0.34 1.36 0 0 Z " fill="#1086E4" transform="translate(120,108)"/>
<path d="M0 0 C0 2.31 0 4.62 0 7 C-1.65 6.67 -3.3 6.34 -5 6 C-4.6875 4.125 -4.6875 4.125 -4 2 C-1 0 -1 0 0 0 Z " fill="#F4E833" transform="translate(40,25)"/>
<path d="M0 0 C0 0.66 0 1.32 0 2 C-5.68697571 2.91397824 -10.31302429 2.91397824 -16 2 C-16 1.67 -16 1.34 -16 1 C-10.59255982 0.22750855 -5.46137814 -0.09752461 0 0 Z " fill="#F9E82F" transform="translate(104,5)"/>
<path d="M0 0 C1.32 0.66 2.64 1.32 4 2 C3.67 2.99 3.34 3.98 3 5 C2.67 4.34 2.34 3.68 2 3 C2 4.32 2 5.64 2 7 C0.35 7.33 -1.3 7.66 -3 8 C-1.125 2.25 -1.125 2.25 0 0 Z " fill="#C5AA42" transform="translate(139,120)"/>
<path d="M0 0 C0.66 0 1.32 0 2 0 C1.26307084 3.14164535 0.44437265 6.10596396 -1 9 C-4.1875 10.5625 -4.1875 10.5625 -7 11 C-5.87092799 7.61278396 -4.48555675 6.48555675 -2 4 C-0.76487921 1.86690808 -0.76487921 1.86690808 0 0 Z " fill="#E5DCC7" transform="translate(169,152)"/>
<path d="M0 0 C1.125 3.75 1.125 3.75 0 6 C-0.66 6 -1.32 6 -2 6 C-2.66 8.64 -3.32 11.28 -4 14 C-4.33 14 -4.66 14 -5 14 C-4.25 6.375 -4.25 6.375 -2 3 C-1.34 3 -0.68 3 0 3 C0 2.01 0 1.02 0 0 Z " fill="#3F8EC4" transform="translate(85,154)"/>
<path d="M0 0 C2.97 0 5.94 0 9 0 C8.67 0.99 8.34 1.98 8 3 C5.69 3.33 3.38 3.66 1 4 C0.67 2.68 0.34 1.36 0 0 Z " fill="#F5C236" transform="translate(160,152)"/>
<path d="M0 0 C2.33333333 0 4.66666667 0 7 0 C7 1.32 7 2.64 7 4 C4.69 4 2.38 4 0 4 C0 2.68 0 1.36 0 0 Z " fill="#FBE038" transform="translate(8,68)"/>
<path d="M0 0 C0.66 0 1.32 0 2 0 C2 0.99 2 1.98 2 3 C2.66 3 3.32 3 4 3 C3.67 4.32 3.34 5.64 3 7 C1.68 6.67 0.36 6.34 -1 6 C-0.67 4.02 -0.34 2.04 0 0 Z " fill="#EAC42E" transform="translate(157,66)"/>
<path d="M0 0 C2.31 0.33 4.62 0.66 7 1 C7.33 2.65 7.66 4.3 8 6 C5.33333333 4.66666667 2.66666667 3.33333333 0 2 C0 1.34 0 0.68 0 0 Z " fill="#FBCE36" transform="translate(15,138)"/>
<path d="M0 0 C1.23593891 3.70781672 0.5678132 4.67510253 -0.9375 8.1875 C-1.31777344 9.08855469 -1.69804687 9.98960937 -2.08984375 10.91796875 C-2.54037109 11.94857422 -2.54037109 11.94857422 -3 13 C-4.35439668 10.29120665 -4.06501451 7.99066732 -4 5 C-3.01 4.67 -2.02 4.34 -1 4 C-0.26676204 1.98491642 -0.26676204 1.98491642 0 0 Z " fill="#EBC657" transform="translate(185,120)"/>
<path d="M0 0 C0.99 0.33 1.98 0.66 3 1 C3 2.98 3 4.96 3 7 C2.01 7.33 1.02 7.66 0 8 C0 7.01 0 6.02 0 5 C-0.66 5 -1.32 5 -2 5 C-1.34 3.35 -0.68 1.7 0 0 Z " fill="#3494D5" transform="translate(100,78)"/>
<path d="M0 0 C0.33 0 0.66 0 1 0 C1 2.97 1 5.94 1 9 C-0.32 8.67 -1.64 8.34 -3 8 C-3 6.35 -3 4.7 -3 3 C-2.34 3 -1.68 3 -1 3 C-0.67 2.01 -0.34 1.02 0 0 Z " fill="#FAF4EC" transform="translate(191,80)"/>
<path d="M0 0 C0.33 0 0.66 0 1 0 C0.88490339 1.41750563 0.75746342 2.83401169 0.625 4.25 C0.55539062 5.03890625 0.48578125 5.8278125 0.4140625 6.640625 C-0.01507113 9.085877 -0.78600638 10.84836903 -2 13 C-3.22764228 5.63414634 -3.22764228 5.63414634 -2.125 2.5625 C-1 1 -1 1 0 0 Z " fill="#F1EFE0" transform="translate(7,67)"/>
<path d="M0 0 C-0.33 0.66 -0.66 1.32 -1 2 C-5.29 1.67 -9.58 1.34 -14 1 C-14 0.67 -14 0.34 -14 0 C-12.41773035 -0.19627391 -10.83410729 -0.38165538 -9.25 -0.5625 C-8.36828125 -0.66691406 -7.4865625 -0.77132812 -6.578125 -0.87890625 C-4.11567549 -0.99456676 -2.33461936 -0.73638695 0 0 Z " fill="#3086C7" transform="translate(92,187)"/>
<path d="M0 0 C1.32 0 2.64 0 4 0 C2.92598892 2.91517292 2.22189824 4.77810176 0 7 C-0.66 7 -1.32 7 -2 7 C-1.34 4.69 -0.68 2.38 0 0 Z " fill="#F3F3ED" transform="translate(180,136)"/>
<path d="M0 0 C1.65 0 3.3 0 5 0 C5 0.66 5 1.32 5 2 C7.31 2 9.62 2 12 2 C12 2.33 12 2.66 12 3 C6.06 3.495 6.06 3.495 0 4 C0 2.68 0 1.36 0 0 Z " fill="#D5C75A" transform="translate(48,119)"/>
<path d="M0 0 C0 0.66 0 1.32 0 2 C0.66 2.33 1.32 2.66 2 3 C-1.465 4.485 -1.465 4.485 -5 6 C-5.33 4.68 -5.66 3.36 -6 2 C-2.25 0 -2.25 0 0 0 Z " fill="#ECD83F" transform="translate(118,58)"/>
<path d="M0 0 C5.57142857 5.14285714 5.57142857 5.14285714 6 9 C4.68 8.67 3.36 8.34 2 8 C1.34 5.36 0.68 2.72 0 0 Z " fill="#F5E35F" transform="translate(171,43)"/>
<path d="M0 0 C1.32 0.66 2.64 1.32 4 2 C2.88820837 5.33537489 1.52588702 6.63707344 -1 9 C-0.67 6.03 -0.34 3.06 0 0 Z " fill="#CBB841" transform="translate(124,93)"/>
<path d="M0 0 C2.475 0.99 2.475 0.99 5 2 C4.1875 3.9375 4.1875 3.9375 3 6 C2.01 6.33 1.02 6.66 0 7 C0 4.69 0 2.38 0 0 Z " fill="#F1D93B" transform="translate(104,64)"/>
<path d="M0 0 C0 0.99 0 1.98 0 3 C-3.6678852 4.96189209 -6.87248551 6.39301257 -11 7 C-9.33784732 5.66104368 -7.67036393 4.32869858 -6 3 C-5.278125 2.4225 -4.55625 1.845 -3.8125 1.25 C-2 0 -2 0 0 0 Z " fill="#E4DCCE" transform="translate(152,171)"/>
<path d="M0 0 C2.5 2.3125 2.5 2.3125 5 5 C5 5.99 5 6.98 5 8 C4.34 8 3.68 8 3 8 C3 7.34 3 6.68 3 6 C2.01 5.67 1.02 5.34 0 5 C0 3.35 0 1.7 0 0 Z " fill="#F2C242" transform="translate(74,168)"/>
<path d="M0 0 C0.66 0 1.32 0 2 0 C2 0.66 2 1.32 2 2 C2.66 2 3.32 2 4 2 C3.67 4.64 3.34 7.28 3 10 C-0.00617269 6.99382731 0.40414684 4.17618402 0 0 Z " fill="#1582E7" transform="translate(120,80)"/>
<path d="M0 0 C0.66 0.66 1.32 1.32 2 2 C1.67028521 5.29714793 1.3773161 6.6226839 -1 9 C-2.0326802 6.21176345 -2.04509293 5.1322726 -1.0625 2.25 C-0.711875 1.5075 -0.36125 0.765 0 0 Z " fill="#F8E342" transform="translate(13,56)"/>
<path d="M0 0 C0.99 0 1.98 0 3 0 C3 1.65 3 3.3 3 5 C2.01 5 1.02 5 0 5 C-0.33 5.66 -0.66 6.32 -1 7 C-0.67 4.69 -0.34 2.38 0 0 Z " fill="#C0A641" transform="translate(113,152)"/>
<path d="M0 0 C0.33 0.66 0.66 1.32 1 2 C1.66 2 2.32 2 3 2 C3.33 3.98 3.66 5.96 4 8 C3.34 8 2.68 8 2 8 C2 7.34 2 6.68 2 6 C1.34 6 0.68 6 0 6 C-0.66 4.68 -1.32 3.36 -2 2 C-1.34 2 -0.68 2 0 2 C0 1.34 0 0.68 0 0 Z " fill="#ECC644" transform="translate(28,154)"/>
<path d="M0 0 C2.31 0 4.62 0 7 0 C7 0.66 7 1.32 7 2 C4.36 2.33 1.72 2.66 -1 3 C-0.67 2.01 -0.34 1.02 0 0 Z " fill="#1489DC" transform="translate(137,61)"/>
<path d="M0 0 C0.99 0 1.98 0 3 0 C3.1875 2.375 3.1875 2.375 3 5 C2.01 5.66 1.02 6.32 0 7 C0 4.69 0 2.38 0 0 Z " fill="#127CC9" transform="translate(80,168)"/>
<path d="M0 0 C2.94956528 1.36944102 5.52468811 2.87830409 8 5 C8 5.66 8 6.32 8 7 C6.68 7 5.36 7 4 7 C2.39662274 4.74339496 1.23417783 2.46835565 0 0 Z " fill="#DEC997" transform="translate(32,163)"/>
<path d="M0 0 C0.99 0.33 1.98 0.66 3 1 C2.67 2.98 2.34 4.96 2 7 C1.34 7 0.68 7 0 7 C-1.125 2.25 -1.125 2.25 0 0 Z " fill="#F0CD44" transform="translate(13,131)"/>
<path d="M0 0 C0.99 0.33 1.98 0.66 3 1 C3 3.31 3 5.62 3 8 C2.34 8 1.68 8 1 8 C1 7.34 1 6.68 1 6 C0.34 6 -0.32 6 -1 6 C-0.67 4.02 -0.34 2.04 0 0 Z " fill="#1289E2" transform="translate(93,104)"/>
<path d="M0 0 C0.99 0.495 0.99 0.495 2 1 C2.59355614 3.64860427 2.74209269 6.29197322 3 9 C2.01 8.34 1.02 7.68 0 7 C-0.1875 3.375 -0.1875 3.375 0 0 Z " fill="#D7AD37" transform="translate(140,111)"/>
<path d="M0 0 C0.33 0.99 0.66 1.98 1 3 C0.34 3 -0.32 3 -1 3 C-1 3.99 -1 4.98 -1 6 C-1.99 6 -2.98 6 -4 6 C-3.67 4.35 -3.34 2.7 -3 1 C-2.01 0.67 -1.02 0.34 0 0 Z " fill="#EBC02A" transform="translate(159,74)"/>
</svg>
